{
  "accessors": [
    {
      "bufferView": 2,
      "componentType": 5126,
      "count": 17811,
      "max": [
        8.116771697998047,
        6.242556095123291,
        6.831395626068115
      ],
      "min": [
        -0.5830949544906616,
        -0.222930908203125,
        -3.6181533336639404
      ],
      "type": "VEC3"
    },
    {
      "bufferView": 2,
      "byteOffset": 213732,
      "componentType": 5126,
      "count": 17811,
      "max": [
        1.0,
        1.0,
        1.0
      ],
      "min": [
        -1.0,
        -1.0,
        -1.0
      ],
      "type": "VEC3"
    },
    {
      "bufferView": 3,
      "componentType": 5126,
      "count": 17811,
      "max": [
        1.0,
        1.0,
        1.0,
        1.0
      ],
      "min": [
        -1.0,
        -1.0,
        -1.0,
        -1.0
      ],
      "type": "VEC4"
    },
    {
      "bufferView": 1,
      "componentType": 5126,
      "count": 17811,
      "max": [
        1.987540364265442,
        0.9947685599327087
      ],
      "min": [
        0.005231467541307211,
        0.005229595582932234
      ],
      "type": "VEC2"
    },
    {
      "bufferView": 1,
      "byteOffset": 142488,
      "componentType": 5126,
      "count": 17811,
      "max": [
        1.987540364265442,
        0.9947685599327087
      ],
      "min": [
        0.005231467541307211,
        0.005229595582932234
      ],
      "type": "VEC2"
    },
    {
      "bufferView": 1,
      "byteOffset": 284976,
      "componentType": 5126,
      "count": 17811,
      "max": [
        1.987540364265442,
        0.9947685599327087
      ],
      "min": [
        0.005231467541307211,
        0.005229595582932234
      ],
      "type": "VEC2"
    },
    {
      "bufferView": 1,
      "byteOffset": 427464,
      "componentType": 5126,
      "count": 17811,
      "max": [
        1.987540364265442,
        0.9947685599327087
      ],
      "min": [
        0.005231467541307211,
        0.005229595582932234
      ],
      "type": "VEC2"
    },
    {
      "bufferView": 0,
      "componentType": 5125,
      "count": 66405,
      "type": "SCALAR"
    },
    {
      "bufferView": 2,
      "byteOffset": 427464,
      "componentType": 5126,
      "count": 6135,
      "max": [
        8.192316055297852,
        5.9747443199157715,
        6.679281711578369
      ],
      "min": [
        -0.3209648132324219,
        -0.1118319183588028,
        -3.345371723175049
      ],
      "type": "VEC3"
    },
    {
      "bufferView": 2,
      "byteOffset": 501084,
      "componentType": 5126,
      "count": 6135,
      "max": [
        1.0,
        1.0,
        0.99974125623703
      ],
      "min": [
        -1.0,
        -1.0,
        -0.9998043179512024
      ],
      "type": "VEC3"
    },
    {
      "bufferView": 3,
      "byteOffset": 284976,
      "componentType": 5126,
      "count": 6135,
      "max": [
        1.0,
        1.0,
        0.9999058246612549,
        1.0
      ],
      "min": [
        -1.0,
        -1.0,
        -0.9999076724052429,
        -1.0
      ],
      "type": "VEC4"
    },
    {
      "bufferView": 1,
      "byteOffset": 569952,
      "componentType": 5126,
      "count": 6135,
      "max": [
        1.6201717853546143,
        0.9938591718673706
      ],
      "min": [
        0.005527824629098177,
        0.0055277422070503235
      ],
      "type": "VEC2"
    },
    {
      "bufferView": 1,
      "byteOffset": 619032,
      "componentType": 5126,
      "count": 6135,
      "max": [
        1.6201717853546143,
        0.9938591718673706
      ],
      "min": [
        0.005527824629098177,
        0.0055277422070503235
      ],
      "type": "VEC2"
    },
    {
      "bufferView": 1,
      "byteOffset": 668112,
      "componentType": 5126,
      "count": 6135,
      "max": [
        1.6201717853546143,
        0.9938591718673706
      ],
      "min": [
        0.005527824629098177,
        0.0055277422070503235
      ],
      "type": "VEC2"
    },
    {
      "bufferView": 1,
      "byteOffset": 717192,
      "componentType": 5126,
      "count": 6135,
      "max": [
        1.6201717853546143,
        0.9938591718673706
      ],
      "min": [
        0.005527824629098177,
        0.0055277422070503235
      ],
      "type": "VEC2"
    },
    {
      "bufferView": 0,
      "byteOffset": 265620,
      "componentType": 5125,
      "count": 20616,
      "type": "SCALAR"
    }
  ],
  "asset": {
    "extras": {
      "author": "Piotr Pisiak (https://sketchfab.com/piopis)",
      "license": "CC-BY-4.0 (http://creativecommons.org/licenses/by/4.0/)",
      "source": "https://sketchfab.com/3d-models/skull-island-5ba9ddfc441c43418bcab7f02f867543",
      "title": "Skull Island"
    },
    "generator": "Sketchfab-16.68.0",
    "version": "2.0"
  },
  "bufferViews": [
    {
      "buffer": 0,
      "byteLength": 348084,
      "name": "floatBufferViews",
      "target": 34963
    },
    {
      "buffer": 0,
      "byteLength": 766272,
      "byteOffset": 348084,
      "byteStride": 8,
      "name": "floatBufferViews",
      "target": 34962
    },
    {
      "buffer": 0,
      "byteLength": 574704,
      "byteOffset": 1114356,
      "byteStride": 12,
      "name": "floatBufferViews",
      "target": 34962
    },
    {
      "buffer": 0,
      "byteLength": 383136,
      "byteOffset": 1689060,
      "byteStride": 16,
      "name": "floatBufferViews",
      "target": 34962
    }
  ],
  "buffers": [
    {
      "byteLength": 2072196,
      "uri": "scene.bin"
    }
  ],
  "images": [
    {
      "uri": "textures/material_baseColor.png"
    },
    {
      "uri": "textures/material_metallicRoughness.png"
    },
    {
      "uri": "textures/material_normal.png"
    },
    {
      "uri": "textures/material_1_baseColor.png"
    },
    {
      "uri": "textures/material_1_metallicRoughness.png"
    },
    {
      "uri": "textures/material_1_normal.png"
    }
  ],
  "materials": [
    {
      "alphaMode": "MASK",
      "doubleSided": true,
      "name": "material",
      "normalTexture": {
        "index": 2
      },
      "pbrMetallicRoughness": {
        "baseColorTexture": {
          "index": 0
        },
        "metallicRoughnessTexture": {
          "index": 1
        }
      }
    },
    {
      "alphaMode": "MASK",
      "doubleSided": true,
      "name": "material_1",
      "normalTexture": {
        "index": 5
      },
      "pbrMetallicRoughness": {
        "baseColorTexture": {
          "index": 3
        },
        "metallicRoughnessTexture": {
          "index": 4
        }
      }
    }
  ],
  "meshes": [
    {
      "name": "Object_0",
      "primitives": [
        {
          "attributes": {
            "NORMAL": 1,
            "POSITION": 0,
            "TANGENT": 2,
            "TEXCOORD_0": 3,
            "TEXCOORD_1": 4,
            "TEXCOORD_2": 5,
            "TEXCOORD_3": 6
          },
          "indices": 7,
          "material": 0,
          "mode": 4
        }
      ]
    },
    {
      "name": "Object_1",
      "primitives": [
        {
          "attributes": {
            "NORMAL": 9,
            "POSITION": 8,
            "TANGENT": 10,
            "TEXCOORD_0": 11,
            "TEXCOORD_1": 12,
            "TEXCOORD_2": 13,
            "TEXCOORD_3": 14
          },
          "indices": 15,
          "material": 1,
          "mode": 4
        }
      ]
    }
  ],
  "nodes": [
    {
      "children": [
        1
      ],
      "matrix": [
        1.0,
        0.0,
        0.0,
        0.0,
        0.0,
        2.220446049250313e-16,
        -1.0,
        0.0,
        0.0,
        1.0,
        2.220446049250313e-16,
        0.0,
        0.0,
        0.0,
        0.0,
        1.0
      ],
      "name": "Sketchfab_model"
    },
    {
      "children": [
        2
      ],
      "name": "root"
    },
    {
      "children": [
        3
      ],
      "matrix": [
        1.0,
        0.0,
        0.0,
        0.0,
        0.0,
        2.220446049250313e-16,
        1.0,
        0.0,
        0.0,
        -1.0,
        2.220446049250313e-16,
        0.0,
        0.0,
        0.0,
        0.0,
        1.0
      ],
      "name": "GLTF_SceneRootNode"
    },
    {
      "children": [
        4,
        5
      ],
      "matrix": [
        1.0,
        0.0,
        0.0,
        0.0,
        0.0,
        1.0,
        0.0,
        0.0,
        0.0,
        0.0,
        1.0,
        0.0,
        -11.505183219909668,
        -0.20392490923404694,
        -3.419386386871338,
        1.0
      ],
      "name": "island_2"
    },
    {
      "mesh": 0,
      "name": "Object_4"
    },
    {
      "mesh": 1,
      "name": "Object_5"
    }
  ],
  "samplers": [
    {
      "magFilter": 9729,
      "minFilter": 9987,
      "wrapS": 10497,
      "wrapT": 10497
    }
  ],
  "scene": 0,
  "scenes": [
    {
      "name": "Sketchfab_Scene",
      "nodes": [
        0
      ]
    }
  ],
  "textures": [
    {
      "sampler": 0,
      "source": 0
    },
    {
      "sampler": 0,
      "source": 1
    },
    {
      "sampler": 0,
      "source": 2
    },
    {
      "sampler": 0,
      "source": 3
    },
    {
      "sampler": 0,
      "source": 4
    },
    {
      "sampler": 0,
      "source": 5
    }
  ]
}
